<svg xmlns="http://www.w3.org/2000/svg" width="80" height="106" fill="none"><g clip-path="url(#a)"><path fill="#fff" d="M46.667 28.156V0H5C2.23 0 0 2.215 0 4.969v96.062C0 103.785 2.23 106 5 106h70c2.77 0 5-2.215 5-4.969V33.125H51.667c-2.75 0-5-2.236-5-4.969Zm15.927 43.758L42.506 91.727a3.568 3.568 0 0 1-5.008 0L17.41 71.914c-2.114-2.084-.63-5.664 2.344-5.664h13.58V49.687c0-1.83 1.491-3.312 3.333-3.312h6.666c1.842 0 3.334 1.482 3.334 3.313V66.25h13.579c2.975 0 4.458 3.58 2.348 5.664Zm15.948-50.176L58.146 1.45A5.012 5.012 0 0 0 54.604 0h-1.27v26.5H80v-1.263c0-1.304-.52-2.567-1.458-3.499Z"/></g><defs><clipPath id="a"><path fill="#fff" d="M0 0h80v106H0z"/></clipPath></defs></svg>