<svg aria-hidden="true" style="position: absolute; width: 0; height: 0; overflow: hidden;" version="1.1" xmlns="http://www.w3.org/2000/svg" xmlns:xlink="http://www.w3.org/1999/xlink">
   <defs>
      <symbol id="icon-appname" viewBox="0 0 32 32">
         <path fill="#fff" style="fill: var(--color1, #fff)" d="M26.706 9.022c0.181 0.181 0.293 0.43 0.294 0.706v19.272c0 0 0 0.001 0 0.001 0 0.552-0.447 0.999-0.999 0.999-0 0-0.001 0-0.001 0h-20c-0 0-0.001 0-0.001 0-0.552 0-0.999-0.447-0.999-0.999 0-0 0-0.001 0-0.001v0-26c0-0.553 0.447-1 1-1h13.272c0.277 0.001 0.527 0.113 0.709 0.294l6.726 6.728zM24.694 10.187l-5.881-5.881v5.881h5.881zM10 15.063c-0 0-0.001 0-0.001 0-0.138 0-0.249 0.112-0.249 0.249 0 0 0 0 0 0v0 1.501c0 0.138 0.112 0.25 0.25 0.25v0h12c0 0 0 0 0 0 0.138 0 0.25-0.112 0.25-0.25 0-0 0-0.001 0-0.001v0-1.499c-0.001-0.138-0.112-0.249-0.25-0.249 0 0 0 0 0 0h-12zM10 19.312c0 0 0 0 0 0-0.138 0-0.25 0.112-0.25 0.25 0 0 0 0.001 0 0.001v-0 1.499c0.001 0.138 0.112 0.249 0.25 0.249 0 0 0 0 0 0h5.75c0 0 0 0 0 0 0.138 0 0.25-0.111 0.25-0.249v-1.501c0-0 0-0.001 0-0.001 0-0.138-0.112-0.249-0.249-0.249-0 0-0.001 0-0.001 0h-5.75z"></path>
      </symbol>
      <symbol id="icon-arrow" viewBox="0 0 32 32">
         <path fill="#fff" style="fill: var(--color1, #fff)" d="M7.383 29.182c0.179 0.095 0.392 0.151 0.618 0.151 0.283 0 0.546-0.088 0.763-0.239l-0.004 0.003 17.333-12c0.349-0.244 0.575-0.644 0.575-1.097s-0.225-0.853-0.57-1.094l-0.004-0.003-17.333-12c-0.212-0.148-0.475-0.237-0.759-0.237-0.736 0-1.333 0.597-1.333 1.333 0 0.001 0 0.001 0 0.002v-0 24c0 0.001 0 0.001 0 0.002 0 0.509 0.286 0.952 0.706 1.176l0.007 0.003z"></path>
      </symbol>
      <symbol id="icon-author" viewBox="0 0 32 32">
         <path fill="#fff" style="fill: var(--color1, #fff)" d="M26.749 24.93c2.010-2.405 3.231-5.531 3.231-8.942 0-7.726-6.263-13.99-13.99-13.99s-13.99 6.263-13.99 13.99c0 0.004 0 0.008 0 0.012v-0.001c0 3.266 1.152 6.427 3.251 8.93l-0.021 0.017c0.070 0.083 0.15 0.155 0.222 0.239 0.091 0.103 0.187 0.2 0.28 0.299 0.28 0.306 0.564 0.589 0.86 0.86l0.010 0.009c0.091 0.085 0.186 0.162 0.28 0.242 0.32 0.277 0.648 0.538 0.99 0.782 0.043 0.031 0.083 0.069 0.128 0.101v-0.011c2.227 1.584 5.003 2.533 8 2.533s5.773-0.949 8.043-2.562l-0.043 0.029v0.011c0.043-0.031 0.082-0.070 0.128-0.101 0.339-0.245 0.67-0.505 0.99-0.782 0.094-0.080 0.189-0.159 0.28-0.242 0.302-0.274 0.59-0.566 0.87-0.869 0.094-0.101 0.19-0.198 0.28-0.301 0.072-0.083 0.152-0.155 0.223-0.24l-0.023-0.016zM16 8c0.021-0 0.047-0.001 0.072-0.001 2.486 0 4.501 2.015 4.501 4.501s-2.015 4.501-4.501 4.501c-0.025 0-0.050-0-0.075-0.001l0.004 0c-2.455-0.040-4.429-2.040-4.429-4.5s1.974-4.46 4.425-4.5l0.004-0zM8.007 24.93c0.037-2.73 2.258-4.929 4.993-4.93h6c2.735 0.002 4.956 2.2 4.993 4.927l0 0.004c-2.107 1.905-4.914 3.070-7.993 3.070s-5.886-1.165-8.004-3.079l0.010 0.009z"></path>
      </symbol>
      <symbol id="icon-data" viewBox="0 0 32 32">
         <path fill="#fff" style="fill: var(--color1, #fff)" d="M28 26.666v-18.666c-0.002-1.472-1.195-2.664-2.666-2.666h-2.668v-2.667h-2.666v2.667h-8v-2.667h-2.666v2.667h-2.667c-1.472 0.002-2.664 1.195-2.666 2.666v18.666c0.001 1.472 1.194 2.665 2.666 2.667h18.668c1.472-0.002 2.665-1.195 2.666-2.667v-0zM12 24h-2.666v-2.666h2.666v2.666zM12 18.666h-2.666v-2.666h2.666v2.666zM17.334 24h-2.667v-2.666h2.667v2.666zM17.334 18.666h-2.667v-2.666h2.667v2.666zM22.666 24h-2.666v-2.666h2.666v2.666zM22.666 18.666h-2.666v-2.666h2.666v2.666zM25.334 12h-18.667v-2.666h18.667v2.666z"></path>
      </symbol>
      <symbol id="icon-downloads" viewBox="0 0 32 32">
         <path fill="#fff" style="fill: var(--color1, #fff)" d="M13.501 0h4.999c0.001 0 0.002 0 0.003 0 0.827 0 1.497 0.67 1.497 1.497 0 0.001 0 0.002 0 0.004v-0 10.499h5.481c1.113 0 1.669 1.344 0.881 2.131l-9.506 9.512c-0.219 0.217-0.52 0.351-0.853 0.351s-0.634-0.134-0.853-0.351l-9.519-9.512c-0.787-0.789-0.231-2.131 0.881-2.131h5.488v-10.501c0-0.001 0-0.002 0-0.002 0-0.827 0.67-1.497 1.497-1.497 0.001 0 0.002 0 0.004 0h-0zM32 23.501v7c0 0.001 0 0.002 0 0.002 0 0.827-0.67 1.497-1.497 1.497-0.001 0-0.002 0-0.004 0h-28.999c-0.001 0-0.002 0-0.003 0-0.827 0-1.497-0.67-1.497-1.497 0-0.001 0-0.002 0-0.004v0-7c0-0.001 0-0.002 0-0.002 0-0.827 0.67-1.497 1.497-1.497 0.001 0 0.002 0 0.004 0h9.168l3.063 3.063c1.257 1.256 3.28 1.256 4.537 0l3.063-3.063h9.169c0.001 0 0.002 0 0.002 0 0.827 0 1.497 0.67 1.497 1.497 0 0.001 0 0.002 0 0.004v-0zM24.25 29c0-0.688-0.562-1.25-1.25-1.25s-1.25 0.562-1.25 1.25c0 0.688 0.562 1.25 1.25 1.25s1.25-0.562 1.25-1.25zM28.25 29c0-0.688-0.562-1.25-1.25-1.25s-1.25 0.562-1.25 1.25c0 0.688 0.562 1.25 1.25 1.25s1.25-0.562 1.25-1.25z"></path>
      </symbol>
      <symbol id="icon-folder" viewBox="0 0 24 32">
         <path fill="#fff" style="fill: var(--color1, #fff)" d="M14.088 8.5v-8.5h-12.579c-0.836 0-1.509 0.669-1.509 1.5v29c0 0.831 0.673 1.5 1.509 1.5h21.132c0.836 0 1.509-0.669 1.509-1.5v-20.5h-8.553c-0.83 0-1.509-0.675-1.509-1.5zM18.896 21.71l-6.064 5.981c-0.194 0.192-0.461 0.31-0.756 0.31s-0.562-0.118-0.756-0.31l0 0-6.064-5.981c-0.638-0.629-0.19-1.71 0.708-1.71h4.1v-5c0-0.552 0.45-1 1.006-1h2.012c0.556 0 1.007 0.447 1.007 1v5h4.099c0.898 0 1.346 1.081 0.709 1.71zM23.711 6.562l-6.157-6.125c-0.273-0.271-0.649-0.438-1.064-0.438-0.002 0-0.003 0-0.005 0h-0.383v8h8.050v-0.381c0-0.394-0.157-0.775-0.44-1.056z"></path>
      </symbol>
      <symbol id="icon-language" viewBox="0 0 32 32">
         <path fill="#fff" style="fill: var(--color1, #fff)" d="M16 29.334c-1.822 0-3.544-0.351-5.166-1.051-1.651-0.712-3.062-1.678-4.252-2.865l0 0c-1.187-1.189-2.153-2.599-2.833-4.162l-0.034-0.087c-0.664-1.503-1.050-3.255-1.050-5.098 0-0.025 0-0.049 0-0.074l-0 0.004c0-1.845 0.351-3.573 1.051-5.183 0.716-1.644 1.681-3.048 2.865-4.233l-0 0c1.189-1.187 2.599-2.154 4.162-2.835l0.087-0.034c1.502-0.663 3.254-1.048 5.095-1.048 0.026 0 0.051 0 0.077 0l-0.004-0c1.845 0 3.571 0.35 5.183 1.050 1.611 0.699 3.023 1.656 4.233 2.867 1.184 1.185 2.15 2.589 2.832 4.146l0.034 0.087c0.701 1.611 1.051 3.338 1.051 5.183 0 1.823-0.351 3.544-1.051 5.166-0.713 1.651-1.679 3.061-2.866 4.25l0-0c-1.185 1.184-2.589 2.15-4.146 2.832l-0.087 0.034c-1.611 0.701-3.338 1.051-5.183 1.051zM16 26.6c0.529-0.722 1.028-1.541 1.456-2.402l0.044-0.098c0.39-0.781 0.742-1.7 1.007-2.655l0.026-0.111h-5.067c0.267 0.977 0.611 1.899 1.034 2.766 0.422 0.867 0.921 1.701 1.499 2.501zM12.534 26.066c-0.352-0.628-0.705-1.38-1.006-2.158l-0.043-0.126c-0.263-0.66-0.52-1.477-0.724-2.316l-0.027-0.133h-3.934c0.657 1.125 1.461 2.083 2.401 2.887l0.015 0.013c0.933 0.796 2.039 1.422 3.25 1.814l0.068 0.019zM19.466 26.066c1.278-0.411 2.384-1.037 3.33-1.844l-0.013 0.011c0.956-0.816 1.76-1.774 2.389-2.847l0.028-0.052h-3.934c-0.23 0.973-0.487 1.79-0.794 2.583l0.046-0.134c-0.346 0.904-0.699 1.656-1.1 2.378l0.048-0.095zM5.666 18.666h4.534c-0.056-0.342-0.11-0.794-0.147-1.25l-0.004-0.066c-0.031-0.396-0.049-0.857-0.049-1.323 0-0.009 0-0.019 0-0.028v0.001c0-0.466 0.016-0.917 0.049-1.349 0.034-0.434 0.085-0.873 0.151-1.318h-4.534c-0.212 0.795-0.334 1.708-0.334 2.649 0 0.006 0 0.012 0 0.018v-0.001c0 0.005 0 0.011 0 0.017 0 0.941 0.122 1.854 0.35 2.724l-0.017-0.074zM12.866 18.666h6.267c0.127-0.8 0.2-1.722 0.2-2.661 0-0.002 0-0.003 0-0.005v0c0-0.001 0-0.003 0-0.005 0-0.939-0.073-1.861-0.213-2.761l0.013 0.1h-6.267c-0.126 0.801-0.199 1.725-0.2 2.665v0.001c-0 0.011-0 0.024-0 0.037 0 0.928 0.073 1.839 0.213 2.728l-0.013-0.098zM21.8 18.666h4.534c0.212-0.794 0.334-1.706 0.334-2.647 0-0.007 0-0.014-0-0.020v0.001c0-0.006 0-0.013 0-0.019 0-0.941-0.122-1.853-0.35-2.721l0.017 0.074h-4.534c0.126 0.801 0.199 1.725 0.2 2.665v0.001c0 0.012 0 0.026 0 0.041 0 0.927-0.073 1.836-0.213 2.724l0.013-0.098zM21.266 10.666h3.934c-0.657-1.126-1.461-2.084-2.402-2.887l-0.015-0.013c-0.933-0.796-2.038-1.422-3.249-1.814l-0.068-0.019c0.4 0.733 0.751 1.494 1.051 2.282 0.299 0.789 0.549 1.606 0.749 2.45zM13.466 10.666h5.067c-0.291-1.066-0.643-1.985-1.074-2.858l0.041 0.092c-0.472-0.959-0.971-1.779-1.534-2.548l0.033 0.048c-0.577 0.8-1.078 1.634-1.501 2.501-0.39 0.781-0.742 1.7-1.007 2.655l-0.026 0.111zM6.8 10.666h3.934c0.2-0.845 0.45-1.661 0.751-2.45 0.299-0.789 0.649-1.55 1.049-2.282-1.279 0.411-2.384 1.037-3.331 1.844l0.013-0.011c-0.955 0.816-1.759 1.774-2.388 2.847l-0.028 0.052z"></path>
      </symbol>
      <symbol id="icon-license" viewBox="0 0 32 32">
         <path fill="#fff" style="fill: var(--color1, #fff)" d="M11 18.877v-1.877h2v1.877c0 0.163 0.021 0.327 0.061 0.486l0.8 3.195-1.861 1.24-1.859-1.24 0.8-3.195c0.038-0.145 0.059-0.312 0.059-0.484 0-0.001 0-0.001 0-0.002v0z"></path>
         <path fill="#fff" style="fill: var(--color1, #fff)" d="M18.586 0h-10.586c-2.209 0-4 1.791-4 4v0 24c0 2.209 1.791 4 4 4v0h16c2.209 0 4-1.791 4-4v0-18.586c0-0.53-0.21-1.039-0.586-1.414l-7.414-7.414c-0.362-0.362-0.862-0.586-1.414-0.586h-0zM19 7v-4l6 6h-4c-1.105 0-2-0.895-2-2v0zM11 6v-2h-2v-2h3v2h2v2h-2v2h2v2h-2v2h2v2h-3v-2h-2v-2h2v-2h-2v-2h2zM11 15h2c1.105 0 2 0.895 2 2v0 1.877l0.8 3.198c0.038 0.145 0.059 0.312 0.059 0.484 0 0.691-0.351 1.301-0.884 1.66l-0.007 0.005-1.859 1.239c-0.312 0.21-0.696 0.336-1.109 0.336s-0.797-0.125-1.116-0.34l0.007 0.005-1.862-1.24c-0.539-0.364-0.889-0.973-0.889-1.663 0-0.172 0.022-0.34 0.063-0.499l-0.003 0.014 0.8-3.197v-1.877c0-1.105 0.895-2 2-2v0z"></path>
      </symbol>
      <symbol id="icon-oc" viewBox="0 0 32 32">
         <path fill="#fff" style="fill: var(--color1, #fff)" d="M28.006 2.672h-24c-1.472 0.003-2.664 1.195-2.669 2.666v16c0.004 1.472 1.196 2.664 2.667 2.667h9.333v2.666h-2.665v2.666h10.666v-2.666h-2.666v-2.666h9.334c1.471-0.005 2.662-1.196 2.666-2.667v-16c-0.005-1.471-1.196-2.662-2.666-2.666h-0zM14.342 18.226h-0.001l-6.334-6.333 1.886-1.885 4.449 4.448 7.779-7.781 1.887 1.886-9.666 9.664z"></path>
      </symbol>
      <symbol id="icon-size" viewBox="0 0 32 32">
         <path fill="#fff" style="fill: var(--color1, #fff)" d="M26.807 25.481c-0.080 1.408-1.242 2.519-2.662 2.519-0 0-0 0-0.001 0h-16.288c-1.421-0-2.582-1.111-2.663-2.512l-0-0.007-1.037-18.666c-0.003-0.044-0.004-0.096-0.004-0.149 0-1.473 1.194-2.666 2.666-2.666 0 0 0 0 0.001 0h18.362c0 0 0 0 0.001 0 1.473 0 2.666 1.194 2.666 2.666 0 0.052-0.002 0.104-0.004 0.156l0-0.007-1.038 18.666zM22.83 11.853c0.546-0.36 0.683-1.074 0.235-1.538-0.745-0.768-1.614-1.41-2.576-1.896l-0.055-0.025c-1.274-0.646-2.775-1.034-4.364-1.058l-0.008-0c-0.051-0.001-0.11-0.001-0.17-0.001-1.537 0-2.994 0.34-4.301 0.949l0.063-0.026c-1.040 0.482-1.931 1.098-2.7 1.84l0.003-0.003c-0.464 0.45-0.352 1.168 0.182 1.545l2.874 2.031c0.534 0.377 1.286 0.255 1.839-0.097 0.569-0.363 1.262-0.581 2.005-0.59l0.002-0 2.263-2.601c0.123-0.141 0.303-0.229 0.503-0.229 0.368 0 0.667 0.298 0.667 0.667 0 0.168-0.062 0.321-0.165 0.438l0.001-0.001-1.754 2.016c0.238 0.098 0.464 0.221 0.677 0.366 0.541 0.368 1.287 0.513 1.834 0.153l2.944-1.939z"></path>
      </symbol>
   </defs>
</svg>