<svg xmlns="http://www.w3.org/2000/svg" width="1280" height="1576" fill="none"><g filter="url('#a')"><path stroke="url('#b')" stroke-linecap="round" stroke-opacity=".25" stroke-width="205" d="M-328.435 671.033c71.85-41.543 161.006-64.779 222.24-68.579 42.349-2.628 83.077 2.562 103.723 20.143 19.74 16.81 28.62 41.515 40.964 62.866 9.434 16.315 15.468 33.24 19.225 52.577 3.637 18.718 13.274 34.238 17.748 52.544 20.332 83.209 51.805 197.272 217.617 169.225 45.743-7.737 88.795-6.411 126.905-4.468 51.706 2.636 107.396 2.464 156.848 7.402 34.225 3.417 66.85 10.724 92.101 22.313 21.593 9.91 32.949 23.374 43.176 41.054 11.636 20.13 23.272 40.25 34.909 60.38 8.385 14.5 8.544 28.17 35.702 27.29 58.074-1.88 125.848 5.3 116.233 53.97"/></g><g filter="url('#c')"><path stroke="url('#d')" stroke-linecap="round" stroke-opacity=".2" stroke-width="205" d="M964.007 527c0-47-.893-98.282 17.21-140.225 14.808-34.306 43.573-41.62 69.643-50.569 37.45-12.855 75.25-18.059 112.91-3.092 8.88 3.527 21.45 14.478 29.44 21.421 15.59 13.557 30.47 21.464 48.25 27.161 17.35 5.558 14.54 45.356 26.54 61.832"/></g><defs><linearGradient id="b" x1="-421.779" x2="335.631" y1="496.026" y2="1406.81" gradientUnits="userSpaceOnUse"><stop stop-color="#00C5EB"/><stop offset=".448" stop-color="#3D99F1" stop-opacity=".62"/><stop offset="1" stop-color="#B544FE"/></linearGradient><linearGradient id="d" x1="957.944" x2="1235.96" y1="397.305" y2="397.505" gradientUnits="userSpaceOnUse"><stop stop-color="#00C5EB"/><stop offset="1" stop-color="#B544FE"/></linearGradient><filter id="a" width="1871.31" height="1208.96" x="-649.953" y="280.312" color-interpolation-filters="sRGB" filterUnits="userSpaceOnUse"><feFlood flood-opacity="0" result="BackgroundImageFix"/><feBlend in="SourceGraphic" in2="BackgroundImageFix" result="shape"/><feGaussianBlur result="effect1_foregroundBlur_2802_7" stdDeviation="109.5"/></filter><filter id="c" width="951.07" height="850.01" x="640.438" y=".49" color-interpolation-filters="sRGB" filterUnits="userSpaceOnUse"><feFlood flood-opacity="0" result="BackgroundImageFix"/><feBlend in="SourceGraphic" in2="BackgroundImageFix" result="shape"/><feGaussianBlur result="effect1_foregroundBlur_2802_7" stdDeviation="110.5"/></filter></defs></svg>