<svg xmlns="http://www.w3.org/2000/svg" width="768" height="2201" fill="none"><g filter="url('#a')"><path stroke="url('#b')" stroke-linecap="round" stroke-opacity=".25" stroke-width="205" d="M680.996 790c0 20.837.543 43.573-10.474 62.169-9.011 15.209-26.516 18.452-42.382 22.419-22.791 5.7-45.794 8.007-68.713 1.371-5.399-1.563-13.053-6.419-17.912-9.497-9.489-6.01-18.541-9.516-29.365-12.042-10.558-2.464-8.847-20.108-16.15-27.413"/></g><g filter="url('#c')"><path stroke="url('#d')" stroke-linecap="round" stroke-opacity=".25" stroke-width="205" d="M559.004 414c0-20.837-.543-43.573 10.474-62.169 9.011-15.209 26.516-18.452 42.382-22.419 22.791-5.7 45.794-8.007 68.713-1.371 5.399 1.563 13.053 6.419 17.912 9.497 9.489 6.01 18.541 9.516 29.365 12.042 10.558 2.464 8.847 20.108 16.15 27.413"/></g><g filter="url('#e')"><path stroke="url('#f')" stroke-linecap="round" stroke-opacity=".2" stroke-width="205" d="M444.004 1485.76c24.812-16.15 51.383-34.54 83.681-33.35 26.417.97 46.414 23.25 65.764 42.64 27.795 27.86 51.746 58.65 64.971 96.25 3.115 8.86 4.389 23.46 5.203 32.73 1.589 18.1 5.76 33.63 12.729 50.92 6.798 16.86-15.788 28.11-17.754 44.12"/></g><g filter="url('#g')"><path stroke="url('#h')" stroke-linecap="round" stroke-opacity=".2" stroke-width="205" d="M-120.978 1781.78c20.053 40.43 39.216 85.88 112.186 94.63 59.686 7.16 150.316-29.96 233.454-61.61 119.421-45.47 236.636-98.04 344.824-167.75 25.488-16.42 59.079-44.82 80.407-62.84 41.65-35.19 83.531-64.44 135.208-96.18 50.411-30.97 24.878-60.95 54.357-93.24"/></g><g filter="url('#i')"><path stroke="url('#j')" stroke-linecap="round" stroke-opacity=".2" stroke-width="205" d="M151.049 1815.54c13.401-19.58 28.89-40.34 23.278-69.84-4.59-24.13-30.423-46.28-53.177-67.34-32.684-30.23-67.888-57.52-108.708-76.31-9.617-4.43-24.947-8.22-34.676-10.64-18.999-4.71-35.69-11.3-54.578-20.75-18.424-9.21-27.042 9.23-43.388 8.12"/></g><defs><linearGradient id="b" x1="684.686" x2="515.5" y1="847.5" y2="847.333" gradientUnits="userSpaceOnUse"><stop stop-color="#00C5EB"/><stop offset="1" stop-color="#B544FE"/></linearGradient><linearGradient id="d" x1="555.314" x2="724.5" y1="356.5" y2="356.667" gradientUnits="userSpaceOnUse"><stop stop-color="#00C5EB"/><stop offset="1" stop-color="#B544FE"/></linearGradient><linearGradient id="f" x1="509.07" x2="664.743" y1="1435.97" y2="1675.75" gradientUnits="userSpaceOnUse"><stop stop-color="#00C5EB"/><stop offset="1" stop-color="#B544FE"/></linearGradient><linearGradient id="h" x1="-84.088" x2="760.626" y1="1902.48" y2="1480.76" gradientUnits="userSpaceOnUse"><stop stop-color="#00C5EB"/><stop offset="1" stop-color="#B544FE"/></linearGradient><linearGradient id="j" x1="193.914" x2="-76.23" y1="1765.55" y2="1581.27" gradientUnits="userSpaceOnUse"><stop stop-color="#00C5EB"/><stop offset="1" stop-color="#B544FE"/></linearGradient><filter id="a" width="832.13" height="737" x="172.5" y="466.5" color-interpolation-filters="sRGB" filterUnits="userSpaceOnUse"><feFlood flood-opacity="0" result="BackgroundImageFix"/><feBlend in="SourceGraphic" in2="BackgroundImageFix" result="shape"/><feGaussianBlur result="effect1_foregroundBlur_2802_9" stdDeviation="110.5"/></filter><filter id="c" width="832.13" height="737.001" x="235.37" y=".499" color-interpolation-filters="sRGB" filterUnits="userSpaceOnUse"><feFlood flood-opacity="0" result="BackgroundImageFix"/><feBlend in="SourceGraphic" in2="BackgroundImageFix" result="shape"/><feGaussianBlur result="effect1_foregroundBlur_2802_9" stdDeviation="110.5"/></filter><filter id="e" width="880.63" height="913.716" x="120.492" y="1128.86" color-interpolation-filters="sRGB" filterUnits="userSpaceOnUse"><feFlood flood-opacity="0" result="BackgroundImageFix"/><feBlend in="SourceGraphic" in2="BackgroundImageFix" result="shape"/><feGaussianBlur result="effect1_foregroundBlur_2802_9" stdDeviation="110.5"/></filter><filter id="g" width="1607.46" height="1129.5" x="-444.501" y="1071.29" color-interpolation-filters="sRGB" filterUnits="userSpaceOnUse"><feFlood flood-opacity="0" result="BackgroundImageFix"/><feBlend in="SourceGraphic" in2="BackgroundImageFix" result="shape"/><feGaussianBlur result="effect1_foregroundBlur_2802_9" stdDeviation="110.5"/></filter><filter id="i" width="942.666" height="894.474" x="-443.704" y="1244.58" color-interpolation-filters="sRGB" filterUnits="userSpaceOnUse"><feFlood flood-opacity="0" result="BackgroundImageFix"/><feBlend in="SourceGraphic" in2="BackgroundImageFix" result="shape"/><feGaussianBlur result="effect1_foregroundBlur_2802_9" stdDeviation="110.5"/></filter></defs></svg>