<svg xmlns="http://www.w3.org/2000/svg" width="320" height="3095" fill="none"><g filter="url('#a')"><path stroke="url('#b')" stroke-linecap="round" stroke-opacity=".2" stroke-width="205" d="M-11.346 2289.72c24.855-16.14 51.473-34.52 83.804-33.29 26.445 1 46.444 23.33 65.796 42.77 27.8 27.92 51.748 58.77 64.952 96.43 3.111 8.88 4.372 23.5 5.178 32.78 1.574 18.12 5.735 33.68 12.695 50.99 6.79 16.89-15.832 28.13-17.815 44.15"/></g><g filter="url('#c')"><path stroke="url('#d')" stroke-linecap="round" stroke-opacity=".2" stroke-width="205" d="M266.164 2540.45c15.704 25.14 33.62 52.07 31.827 84.38-1.466 26.42-24.139 46.03-43.914 65.04-28.405 27.3-59.671 50.71-97.556 63.25-8.925 2.96-23.567 3.97-32.858 4.61-18.144 1.26-33.774 5.15-51.208 11.8-17.006 6.5-27.849-16.32-43.833-18.58"/></g><g filter="url('#e')"><path stroke="url('#f')" stroke-linecap="round" stroke-opacity=".25" stroke-width="205" d="M105.492 439.939c-5.67-20.051-12.379-41.781-6.837-62.672 4.533-17.088 20.495-24.971 34.683-33.106 20.381-11.685 41.888-20.164 65.748-20.015 5.621.035 14.307 2.625 19.82 4.265 10.766 3.202 20.431 4.112 31.533 3.598 10.831-.501 13.985 16.942 23 21.985"/></g><g filter="url('#g')"><path stroke="url('#h')" stroke-linecap="round" stroke-opacity=".25" stroke-width="205" d="M17.671 1625.66c-17.595-11.16-37.772-21.8-33.616-63.06 3.399-33.75 32.213-85.21 57.46-132.41 36.269-67.8 75.782-134.38 122.694-195.93 11.052-14.51 28.948-33.65 40.305-45.8 22.178-23.74 41.454-47.57 63.095-76.97 21.112-28.67 32.926-14.36 52.257-31.19"/></g><defs><linearGradient id="b" x1="53.839" x2="209.457" y1="2239.94" y2="2480.19" gradientUnits="userSpaceOnUse"><stop stop-color="#00C5EB"/><stop offset="1" stop-color="#B544FE"/></linearGradient><linearGradient id="d" x1="314.794" x2="71.867" y1="2606.5" y2="2757.9" gradientUnits="userSpaceOnUse"><stop stop-color="#00C5EB"/><stop offset="1" stop-color="#B544FE"/></linearGradient><linearGradient id="f" x1="86.296" x2="249.145" y1="385.612" y2="339.74" gradientUnits="userSpaceOnUse"><stop stop-color="#00C5EB"/><stop offset="1" stop-color="#B544FE"/></linearGradient><linearGradient id="h" x1="-37.532" x2="269.01" y1="1605.34" y2="1125.73" gradientUnits="userSpaceOnUse"><stop stop-color="#00C5EB"/><stop offset="1" stop-color="#B544FE"/></linearGradient><filter id="a" width="880.703" height="914.189" x="-334.858" y="1932.87" color-interpolation-filters="sRGB" filterUnits="userSpaceOnUse"><feFlood flood-opacity="0" result="BackgroundImageFix"/><feBlend in="SourceGraphic" in2="BackgroundImageFix" result="shape"/><feGaussianBlur result="effect1_foregroundBlur_2802_10" stdDeviation="110.5"/></filter><filter id="c" width="916.493" height="877.252" x="-294.89" y="2216.94" color-interpolation-filters="sRGB" filterUnits="userSpaceOnUse"><feFlood flood-opacity="0" result="BackgroundImageFix"/><feBlend in="SourceGraphic" in2="BackgroundImageFix" result="shape"/><feGaussianBlur result="effect1_foregroundBlur_2802_10" stdDeviation="110.5"/></filter><filter id="e" width="823.729" height="762.821" x="-226.771" y=".644" color-interpolation-filters="sRGB" filterUnits="userSpaceOnUse"><feFlood flood-opacity="0" result="BackgroundImageFix"/><feBlend in="SourceGraphic" in2="BackgroundImageFix" result="shape"/><feGaussianBlur result="effect1_foregroundBlur_2802_10" stdDeviation="110.5"/></filter><filter id="g" width="983.35" height="1192.38" x="-339.982" y="756.797" color-interpolation-filters="sRGB" filterUnits="userSpaceOnUse"><feFlood flood-opacity="0" result="BackgroundImageFix"/><feBlend in="SourceGraphic" in2="BackgroundImageFix" result="shape"/><feGaussianBlur result="effect1_foregroundBlur_2802_10" stdDeviation="110.5"/></filter></defs></svg>