<svg xmlns="http://www.w3.org/2000/svg" width="1280" height="1852" fill="none"><g filter="url('#a')"><path stroke="url('#b')" stroke-linecap="round" stroke-opacity=".2" stroke-width="205" d="M4.03 1063c0 46.54-3.632 97.31 69.973 138.84 60.204 33.97 177.156 41.21 283.161 50.07 152.27 12.73 305.954 17.89 459.075 3.07 36.074-3.5 87.211-14.34 119.673-21.21 63.395-13.43 123.878-21.26 196.188-26.9 70.54-5.5 59.11-44.91 107.9-61.22"/></g><g filter="url('#c')"><path stroke="url('#d')" stroke-linecap="round" stroke-opacity=".2" stroke-width="205" d="M615.934 1401.92c-17.51 43.12-34.981 90.83-83.737 115.85-39.878 20.47-95.243 5.8-146.289-5.37-73.325-16.04-144.437-39.35-207.779-81.07-14.923-9.83-33.86-29.23-45.885-41.53-23.482-24.02-47.758-42.33-78.183-60.78-29.679-17.99-9.707-52.41-25.53-76.44"/></g><g filter="url('#e')"><path stroke="url('#f')" stroke-linecap="round" stroke-opacity=".2" stroke-width="205" d="M866.488 1009.35c32.148-33.643 65.95-71.575 120.492-76.901 44.61-4.356 90.69 29.657 134.05 58.825 62.28 41.896 119.82 89.746 163.36 151.846 10.26 14.63 20.73 39.64 27.39 55.5 12.99 30.98 28.82 56.94 50.33 85.28 20.97 27.66-10.27 52.31-4.4 80.48"/></g><g filter="url('#g')"><path stroke="url('#h')" stroke-linecap="round" stroke-opacity=".25" stroke-width="205" d="M1064 414.188c0-20.881-.54-43.665 10.5-62.299 9.03-15.241 26.58-18.49 42.48-22.466 22.85-5.711 45.9-8.023 68.87-1.374 5.42 1.567 13.09 6.432 17.96 9.517 9.51 6.023 18.58 9.536 29.43 12.067 10.58 2.469 8.87 20.15 16.19 27.47"/></g><g filter="url('#i')"><path stroke="url('#j')" stroke-linecap="round" stroke-opacity=".25" stroke-width="205" d="M428.436 517.026c-.003 20.881.539 43.665-10.506 62.297-9.034 15.24-26.58 18.487-42.484 22.46-22.845 5.708-45.901 8.017-68.872 1.364-5.411-1.567-13.082-6.434-17.952-9.519-9.51-6.025-18.582-9.538-29.43-12.071-10.583-2.471-8.865-20.152-16.184-27.473"/></g><defs><linearGradient id="b" x1="-20.623" x2="1109.71" y1="1191.42" y2="1188.08" gradientUnits="userSpaceOnUse"><stop stop-color="#00C5EB"/><stop offset="1" stop-color="#B544FE"/></linearGradient><linearGradient id="d" x1="578.711" x2="70.245" y1="1525.41" y2="1318.06" gradientUnits="userSpaceOnUse"><stop stop-color="#00C5EB"/><stop offset="1" stop-color="#B544FE"/></linearGradient><linearGradient id="f" x1="946.541" x2="1343.02" y1="908.232" y2="1288.14" gradientUnits="userSpaceOnUse"><stop stop-color="#00C5EB"/><stop offset="1" stop-color="#B544FE"/></linearGradient><linearGradient id="h" x1="1060.31" x2="1229.88" y1="356.568" y2="356.735" gradientUnits="userSpaceOnUse"><stop stop-color="#00C5EB"/><stop offset="1" stop-color="#B544FE"/></linearGradient><linearGradient id="j" x1="432.126" x2="262.549" y1="574.647" y2="574.455" gradientUnits="userSpaceOnUse"><stop stop-color="#00C5EB"/><stop offset="1" stop-color="#B544FE"/></linearGradient><filter id="a" width="1883.11" height="847.999" x="-319.58" y="739.5" color-interpolation-filters="sRGB" filterUnits="userSpaceOnUse"><feFlood flood-opacity="0" result="BackgroundImageFix"/><feBlend in="SourceGraphic" in2="BackgroundImageFix" result="shape"/><feGaussianBlur result="effect1_foregroundBlur_2802_8" stdDeviation="110.5"/></filter><filter id="c" width="1234.44" height="922.46" x="-294.98" y="929.065" color-interpolation-filters="sRGB" filterUnits="userSpaceOnUse"><feFlood flood-opacity="0" result="BackgroundImageFix"/><feBlend in="SourceGraphic" in2="BackgroundImageFix" result="shape"/><feGaussianBlur result="effect1_foregroundBlur_2802_8" stdDeviation="110.5"/></filter><filter id="e" width="1149.96" height="1079.33" x="542.987" y="608.568" color-interpolation-filters="sRGB" filterUnits="userSpaceOnUse"><feFlood flood-opacity="0" result="BackgroundImageFix"/><feBlend in="SourceGraphic" in2="BackgroundImageFix" result="shape"/><feGaussianBlur result="effect1_foregroundBlur_2802_8" stdDeviation="110.5"/></filter><filter id="g" width="832.558" height="737.188" x="740.37" y=".499" color-interpolation-filters="sRGB" filterUnits="userSpaceOnUse"><feFlood flood-opacity="0" result="BackgroundImageFix"/><feBlend in="SourceGraphic" in2="BackgroundImageFix" result="shape"/><feGaussianBlur result="effect1_foregroundBlur_2802_8" stdDeviation="110.5"/></filter><filter id="i" width="832.561" height="737.175" x="-80.492" y="193.526" color-interpolation-filters="sRGB" filterUnits="userSpaceOnUse"><feFlood flood-opacity="0" result="BackgroundImageFix"/><feBlend in="SourceGraphic" in2="BackgroundImageFix" result="shape"/><feGaussianBlur result="effect1_foregroundBlur_2802_8" stdDeviation="110.5"/></filter></defs></svg>