<svg width="320" height="512" fill="none" xmlns="http://www.w3.org/2000/svg"><g filter="url('#filter0_f_301_57')"><path d="M186.157 357.002c8.994-5.854 18.627-12.521 30.335-12.09 9.576.353 16.825 8.428 23.84 15.459 10.076 10.099 18.758 21.26 23.552 34.891 1.13 3.211 1.592 8.504 1.887 11.864.576 6.56 2.088 12.192 4.614 18.458 2.464 6.113-5.723 10.192-6.436 15.993" stroke="url('#paint0_linear_301_57')" stroke-opacity=".2" stroke-width="205" stroke-linecap="round"/></g><g filter="url('#filter1_f_301_57')"><path d="M-18.654 464.312c7.27 14.654 14.216 31.132 40.668 34.305 21.637 2.595 54.491-10.862 84.629-22.335 43.292-16.482 85.783-35.539 125.002-60.81 9.24-5.953 21.417-16.249 29.149-22.781 15.098-12.758 30.28-23.361 49.014-34.868 18.274-11.225 9.018-22.095 19.705-33.797" stroke="url('#paint1_linear_301_57')" stroke-opacity=".2" stroke-width="205" stroke-linecap="round"/></g><g filter="url('#filter2_f_301_57')"><path d="M79.958 476.55c4.858-7.096 10.473-14.624 8.439-25.317-1.665-8.746-11.03-16.779-19.278-24.41-11.848-10.962-24.61-20.853-39.407-27.665-3.487-1.604-9.044-2.981-12.57-3.856-6.888-1.708-12.939-4.098-19.786-7.522-6.678-3.34-9.803 3.346-15.728 2.943" stroke="url('#paint2_linear_301_57')" stroke-opacity=".2" stroke-width="205" stroke-linecap="round"/></g><defs><linearGradient id="paint0_linear_301_57" x1="209.744" y1="338.953" x2="266.177" y2="425.875" gradientUnits="userSpaceOnUse"><stop stop-color="#00C5EB"/><stop offset="1" stop-color="#B544FE"/></linearGradient><linearGradient id="paint1_linear_301_57" x1="-5.281" y1="508.067" x2="300.935" y2="355.188" gradientUnits="userSpaceOnUse"><stop stop-color="#00C5EB"/><stop offset="1" stop-color="#B544FE"/></linearGradient><linearGradient id="paint2_linear_301_57" x1="95.497" y1="458.429" x2="-2.433" y2="391.627" gradientUnits="userSpaceOnUse"><stop stop-color="#00C5EB"/><stop offset="1" stop-color="#B544FE"/></linearGradient><filter id="filter0_f_301_57" x="-137.355" y="21.398" width="731.701" height="743.69" filterUnits="userSpaceOnUse" color-interpolation-filters="sRGB"><feFlood flood-opacity="0" result="BackgroundImageFix"/><feBlend in="SourceGraphic" in2="BackgroundImageFix" result="shape"/><feGaussianBlur stdDeviation="110.5" result="effect1_foregroundBlur_301_57"/></filter><filter id="filter1_f_301_57" x="-342.177" y=".525" width="995.19" height="821.901" filterUnits="userSpaceOnUse" color-interpolation-filters="sRGB"><feFlood flood-opacity="0" result="BackgroundImageFix"/><feBlend in="SourceGraphic" in2="BackgroundImageFix" result="shape"/><feGaussianBlur stdDeviation="110.5" result="effect1_foregroundBlur_301_57"/></filter><filter id="filter2_f_301_57" x="-341.876" y="63.34" width="754.208" height="736.719" filterUnits="userSpaceOnUse" color-interpolation-filters="sRGB"><feFlood flood-opacity="0" result="BackgroundImageFix"/><feBlend in="SourceGraphic" in2="BackgroundImageFix" result="shape"/><feGaussianBlur stdDeviation="110.5" result="effect1_foregroundBlur_301_57"/></filter></defs></svg>