<svg aria-hidden="true" style="width:0;height:0;position:absolute;overflow:hidden" xmlns="http://www.w3.org/2000/svg"><defs><symbol id="icon-button-close" viewBox="0 0 32 32"><path fill="#fff" style="fill:var(--color1,#fff)" d="M23.884 6.706 16 14.59 8.116 6.706a.995.995 0 0 0-1.38.031 1 1 0 0 0-.031 1.38l7.88 7.884-7.882 7.882a1.002 1.002 0 0 0-.018 1.427.998.998 0 0 0 1.427-.015l7.886-7.882 7.884 7.884a1 1 0 0 0 1.38-.03 1 1 0 0 0 .03-1.38l-7.884-7.884 7.884-7.886a1.002 1.002 0 0 0 .018-1.427.998.998 0 0 0-1.427.015v.002z"/></symbol><symbol id="icon-button-burger-open" viewBox="0 0 52 32"><path fill="none" stroke="#fff" style="stroke:var(--color1,#fff)" stroke-linecap="round" stroke-width="4" d="M2 2h48M2 16h48M2 30h48"/></symbol><symbol id="icon-android" viewBox="0 0 28 32"><path d="M5.26 24.204c0 .836.708 1.518 1.578 1.518h1.804v4.3c0 1.089.908 1.979 2.023 1.979 1.119 0 2.023-.886 2.023-1.979v-4.303h3.149v4.3c0 1.089.908 1.979 2.023 1.979 1.119 0 2.023-.886 2.023-1.979v-4.3h1.804c.871 0 1.578-.682 1.578-1.518V10.087H5.26v14.117zM18.49 2.773 20.153.452c.096-.136.074-.318-.056-.407-.13-.086-.315-.043-.411.093L17.96 2.552c-1.137-.432-2.404-.671-3.734-.671s-2.597.239-3.734.671L8.766.141C8.67.005 8.484-.041 8.355.048c-.13.086-.152.264-.056.407l1.663 2.321C7.317 3.962 5.465 6.208 5.227 8.833h18.005c-.245-2.628-2.101-4.875-4.742-6.06zm-8.065 3.66c-.197 0-.39-.056-.554-.162s-.292-.256-.367-.431a.936.936 0 0 1 .216-1.047 1.03 1.03 0 0 1 1.086-.208.989.989 0 0 1 .447.354.934.934 0 0 1-.125 1.213 1.02 1.02 0 0 1-.704.282zm7.72 0c-.197 0-.39-.056-.554-.162s-.292-.256-.367-.431a.936.936 0 0 1 .216-1.047 1.03 1.03 0 0 1 1.086-.208c.182.073.338.196.447.354s.168.344.168.534c-.001.255-.106.499-.293.679s-.44.281-.704.282zm8.276 3.597c-1.119 0-2.023.886-2.023 1.979v7.728c0 1.089.908 1.979 2.023 1.979 1.119 0 2.023-.886 2.023-1.979v-7.732c.004-1.093-.9-1.975-2.023-1.975zm-24.399 0c-1.119 0-2.023.886-2.023 1.979v7.728c0 1.089.908 1.979 2.023 1.979 1.119 0 2.023-.886 2.023-1.979v-7.732c0-1.093-.908-1.975-2.023-1.975z"/></symbol><symbol id="icon-ios" viewBox="0 0 27 32"><path d="M20.372 7.314c-2.881 0-4.098 1.384-6.104 1.384-2.057 0-3.626-1.374-6.122-1.374-2.443 0-5.049 1.502-6.704 4.061-2.323 3.608-1.929 10.404 1.834 16.193C4.622 29.65 6.419 31.975 8.777 32h.043c2.049 0 2.658-1.351 5.478-1.367h.043c2.778 0 3.335 1.359 5.375 1.359h.043c2.358-.025 4.252-2.6 5.598-4.665.969-1.485 1.329-2.23 2.072-3.91-5.443-2.08-6.318-9.85-.934-12.829-1.643-2.072-3.952-3.272-6.129-3.272l.007-.003zM20.055 0c-1.658.111-3.593 1.148-4.726 2.502-1.028 1.227-1.874 3.047-1.542 4.813h.133c1.766 0 3.573-1.045 4.629-2.383 1.017-1.274 1.788-3.079 1.506-4.931z"/></symbol><symbol id="icon-appname" viewBox="0 0 32 32"><path fill="#fff" style="fill:var(--color1,#fff)" d="M26.706 9.022a1 1 0 0 1 .294.706v19.273a.999.999 0 0 1-.999.999H5.999A.999.999 0 0 1 5 29.001V3a1 1 0 0 1 1-1h13.272c.277.001.527.113.709.294l6.726 6.728zm-2.012 1.165-5.881-5.881v5.881h5.881zM10 15.063h-.001a.249.249 0 0 0-.249.249v1.501c0 .138.112.25.25.25h12a.25.25 0 0 0 .25-.25v-1.5a.25.25 0 0 0-.25-.249H10zm0 4.249a.25.25 0 0 0-.25.25v1.5a.25.25 0 0 0 .25.249h5.75a.25.25 0 0 0 .25-.249V19.56a.249.249 0 0 0-.249-.249H10z"/></symbol><symbol id="icon-arrow" viewBox="0 0 32 32"><path fill="#fff" style="fill:var(--color1,#fff)" d="M7.383 29.182a1.331 1.331 0 0 0 1.381-.088l-.004.003 17.333-12a1.335 1.335 0 0 0 .005-2.191l-.004-.003-17.333-12a1.333 1.333 0 0 0-2.092 1.096V28.003c0 .509.286.952.706 1.176l.007.003z"/></symbol><symbol id="icon-author" viewBox="0 0 32 32"><path fill="#fff" style="fill:var(--color1,#fff)" d="M26.749 24.93a13.912 13.912 0 0 0 3.231-8.942c0-7.726-6.263-13.99-13.99-13.99S2 8.261 2 15.988V16v-.001c0 3.266 1.152 6.427 3.251 8.93l-.021.017c.07.083.15.155.222.239.091.103.187.2.28.299.28.306.564.589.86.86l.01.009c.091.085.186.162.28.242.32.277.648.538.99.782.043.031.083.069.128.101v-.011C10.227 29.051 13.003 30 16 30s5.773-.949 8.043-2.562l-.043.029v.011c.043-.031.082-.07.128-.101.339-.245.67-.505.99-.782.094-.08.189-.159.28-.242.302-.274.59-.566.87-.869.094-.101.19-.198.28-.301.072-.083.152-.155.223-.24l-.023-.016zM16 8l.072-.001a4.5 4.5 0 1 1 0 9.002L15.997 17h.004a4.501 4.501 0 0 1-.004-9h.004zM8.007 24.93A4.996 4.996 0 0 1 13 20h6a4.996 4.996 0 0 1 4.993 4.927v.004c-2.107 1.905-4.914 3.07-7.993 3.07s-5.886-1.165-8.004-3.079l.01.009z"/></symbol><symbol id="icon-data" viewBox="0 0 32 32"><path fill="#fff" style="fill:var(--color1,#fff)" d="M28 26.666V8a2.67 2.67 0 0 0-2.666-2.666h-2.668V2.667H20v2.667h-8V2.667H9.334v2.667H6.667A2.67 2.67 0 0 0 4.001 8v18.666a2.67 2.67 0 0 0 2.666 2.667h18.668a2.67 2.67 0 0 0 2.666-2.667zM12 24H9.334v-2.666H12V24zm0-5.334H9.334V16H12v2.666zM17.334 24h-2.667v-2.666h2.667V24zm0-5.334h-2.667V16h2.667v2.666zM22.666 24H20v-2.666h2.666V24zm0-5.334H20V16h2.666v2.666zM25.334 12H6.667V9.334h18.667V12z"/></symbol><symbol id="icon-downloads" viewBox="0 0 32 32"><path fill="#fff" style="fill:var(--color1,#fff)" d="M13.501 0h5.002C19.33 0 20 .67 20 1.497V12h5.481c1.113 0 1.669 1.344.881 2.131l-9.506 9.512c-.219.217-.52.351-.853.351s-.634-.134-.853-.351l-9.519-9.512C4.844 13.342 5.4 12 6.512 12H12V1.497C12 .67 12.67 0 13.497 0h.004zM32 23.501v7.002C32 31.33 31.33 32 30.503 32H1.497C.67 32 0 31.33 0 30.503V23.497C0 22.67.67 22 1.497 22H10.669l3.063 3.063a3.202 3.202 0 0 0 4.537 0L21.332 22H30.503c.827 0 1.497.67 1.497 1.497v.004zM24.25 29c0-.688-.562-1.25-1.25-1.25s-1.25.562-1.25 1.25.562 1.25 1.25 1.25 1.25-.562 1.25-1.25zm4 0c0-.688-.562-1.25-1.25-1.25s-1.25.562-1.25 1.25.562 1.25 1.25 1.25 1.25-.562 1.25-1.25z"/></symbol><symbol id="icon-folder" viewBox="0 0 24 32"><path fill="#fff" style="fill:var(--color1,#fff)" d="M14.088 8.5V0H1.509C.673 0 0 .669 0 1.5v29c0 .831.673 1.5 1.509 1.5h21.132c.836 0 1.509-.669 1.509-1.5V10h-8.553c-.83 0-1.509-.675-1.509-1.5zm4.808 13.21-6.064 5.981c-.194.192-.461.31-.756.31s-.562-.118-.756-.31L5.256 21.71c-.638-.629-.19-1.71.708-1.71h4.1v-5c0-.552.45-1 1.006-1h2.012c.556 0 1.007.447 1.007 1v5h4.099c.898 0 1.346 1.081.709 1.71zm4.815-15.148L17.554.437a1.505 1.505 0 0 0-1.064-.438h-.388v8h8.05v-.381c0-.394-.157-.775-.44-1.056z"/></symbol><symbol id="icon-language" viewBox="0 0 32 32"><path fill="#fff" style="fill:var(--color1,#fff)" d="M16 29.334c-1.822 0-3.544-.351-5.166-1.051a13.568 13.568 0 0 1-4.252-2.865 13.539 13.539 0 0 1-2.833-4.162l-.034-.087c-.664-1.503-1.05-3.255-1.05-5.098v-.074.004c0-1.845.351-3.573 1.051-5.183a13.622 13.622 0 0 1 2.865-4.233 13.562 13.562 0 0 1 4.162-2.835l.087-.034c1.502-.663 3.254-1.048 5.095-1.048h.077-.004c1.845 0 3.571.35 5.183 1.05a13.55 13.55 0 0 1 7.065 7.013l.034.087c.701 1.611 1.051 3.338 1.051 5.183 0 1.823-.351 3.544-1.051 5.166a13.566 13.566 0 0 1-2.866 4.25 13.576 13.576 0 0 1-4.146 2.832l-.087.034c-1.611.701-3.338 1.051-5.183 1.051zm0-2.734a16.625 16.625 0 0 0 1.456-2.402l.044-.098c.39-.781.742-1.7 1.007-2.655l.026-.111h-5.067c.267.977.611 1.899 1.034 2.766.422.867.921 1.701 1.499 2.501zm-3.466-.534a17.24 17.24 0 0 1-1.006-2.158l-.043-.126c-.263-.66-.52-1.477-.724-2.316l-.027-.133H6.8a11.192 11.192 0 0 0 2.401 2.887l.015.013a9.548 9.548 0 0 0 3.25 1.814l.068.019zm6.932 0a9.613 9.613 0 0 0 3.33-1.844l-.013.011a11.154 11.154 0 0 0 2.389-2.847l.028-.052h-3.934c-.23.973-.487 1.79-.794 2.583l.046-.134a18.108 18.108 0 0 1-1.1 2.378l.048-.095zm-13.8-7.4H10.2a16.34 16.34 0 0 1-.147-1.25l-.004-.066A17.384 17.384 0 0 1 10 16.027v-.028V16c0-.466.016-.917.049-1.349.034-.434.085-.873.151-1.318H5.666a10.426 10.426 0 0 0-.334 2.649V16v-.001.017c0 .941.122 1.854.35 2.724l-.017-.074zm7.2 0h6.267c.127-.8.2-1.722.2-2.661v-.01c0-.939-.073-1.861-.213-2.761l.013.1h-6.267a17.63 17.63 0 0 0-.2 2.665v.038c0 .928.073 1.839.213 2.728l-.013-.098zm8.934 0h4.534c.212-.794.334-1.706.334-2.647v-.02V16v-.019c0-.941-.122-1.853-.35-2.721l.017.074h-4.534c.126.801.199 1.725.2 2.665v.042c0 .927-.073 1.836-.213 2.724l.013-.098zm-.534-8H25.2a11.143 11.143 0 0 0-2.402-2.887l-.015-.013a9.544 9.544 0 0 0-3.249-1.814l-.068-.019c.4.733.751 1.494 1.051 2.282.299.789.549 1.606.749 2.45zm-7.8 0h5.067a15.64 15.64 0 0 0-1.074-2.858l.041.092a16.775 16.775 0 0 0-1.534-2.548l.033.048c-.577.8-1.078 1.634-1.501 2.501-.39.781-.742 1.7-1.007 2.655l-.026.111zm-6.666 0h3.934c.2-.845.45-1.661.751-2.45.299-.789.649-1.55 1.049-2.282a9.617 9.617 0 0 0-3.331 1.844l.013-.011a11.17 11.17 0 0 0-2.388 2.847l-.028.052z"/></symbol><symbol id="icon-license" viewBox="0 0 32 32"><path fill="#fff" style="fill:var(--color1,#fff)" d="M11 18.877V17h2v1.877c0 .163.021.327.061.486l.8 3.195L12 23.798l-1.859-1.24.8-3.195c.038-.145.059-.312.059-.484v-.002z"/><path fill="#fff" style="fill:var(--color1,#fff)" d="M18.586 0H8a4 4 0 0 0-4 4v24a4 4 0 0 0 4 4h16a4 4 0 0 0 4-4V9.414c0-.53-.21-1.039-.586-1.414L20 .586A1.994 1.994 0 0 0 18.586 0zM19 7V3l6 6h-4a2 2 0 0 1-2-2zm-8-1V4H9V2h3v2h2v2h-2v2h2v2h-2v2h2v2h-3v-2H9v-2h2V8H9V6h2zm0 9h2a2 2 0 0 1 2 2v1.877l.8 3.198a1.999 1.999 0 0 1-.825 2.144l-.007.005-1.859 1.239c-.312.21-.696.336-1.109.336s-.797-.125-1.116-.34l.007.005-1.862-1.24a2.002 2.002 0 0 1-.826-2.162l-.003.014.8-3.197v-1.877a2 2 0 0 1 2-2z"/></symbol><symbol id="icon-oc" viewBox="0 0 32 32"><path fill="#fff" style="fill:var(--color1,#fff)" d="M28.006 2.672h-24a2.675 2.675 0 0 0-2.669 2.666v16a2.673 2.673 0 0 0 2.667 2.667h9.333v2.666h-2.665v2.666h10.666v-2.666h-2.666v-2.666h9.334a2.674 2.674 0 0 0 2.666-2.667v-16a2.674 2.674 0 0 0-2.666-2.666zM14.342 18.226h-.001l-6.334-6.333 1.886-1.885 4.449 4.448 7.779-7.781 1.887 1.886-9.666 9.664z"/></symbol><symbol id="icon-size" viewBox="0 0 32 32"><path fill="#fff" style="fill:var(--color1,#fff)" d="M26.807 25.481A2.668 2.668 0 0 1 24.145 28H7.856a2.668 2.668 0 0 1-2.663-2.512v-.007L4.156 6.815A2.666 2.666 0 0 1 6.818 4h18.364a2.666 2.666 0 0 1 2.666 2.666c0 .052-.002.104-.004.156v-.007l-1.038 18.666zM22.83 11.853c.546-.36.683-1.074.235-1.538a9.653 9.653 0 0 0-2.576-1.896l-.055-.025a10.023 10.023 0 0 0-4.364-1.058h-.008l-.17-.001c-1.537 0-2.994.34-4.301.949l.063-.026a9.75 9.75 0 0 0-2.7 1.84l.003-.003c-.464.45-.352 1.168.182 1.545l2.874 2.031c.534.377 1.286.255 1.839-.097a3.817 3.817 0 0 1 2.005-.59h.002l2.263-2.601a.665.665 0 0 1 1.17.438.66.66 0 0 1-.165.438l.001-.001-1.754 2.016c.238.098.464.221.677.366.541.368 1.287.513 1.834.153l2.944-1.939z"/></symbol><symbol id="icon-facebook" viewBox="0 0 32 32"><path d="M24 3.416c0-.196-.077-.385-.213-.524s-.321-.217-.514-.217h-3.636c-1.831-.093-3.624.556-4.987 1.805s-2.185 2.996-2.286 4.86v3.999H8.728c-.193 0-.378.078-.514.217s-.213.327-.213.524v3.851c0 .196.077.385.213.524s.321.217.514.217h3.636v9.923c0 .196.077.385.213.524s.321.217.514.217h4.364c.193 0 .378-.078.514-.217s.213-.327.213-.524v-9.923h3.811c.162.002.32-.05.449-.149s.222-.24.264-.399l1.047-3.851a.743.743 0 0 0-.124-.641.73.73 0 0 0-.574-.292h-4.873V9.341c.036-.367.205-.706.474-.953s.619-.382.98-.38h3.636c.193 0 .378-.078.514-.217s.213-.327.213-.524V3.416z"/></symbol><symbol id="icon-linkedin" viewBox="0 0 32 32"><path d="M8.268 28H2.463V9.306h5.805V28zM5.362 6.756C3.506 6.756 2 5.218 2 3.362A3.366 3.366 0 0 1 5.362 0a3.366 3.366 0 0 1 3.362 3.362c0 1.856-1.506 3.394-3.362 3.394zM29.994 28h-5.792v-9.1c0-2.169-.044-4.95-3.018-4.95-3.018 0-3.481 2.356-3.481 4.794V28h-5.799V9.306h5.567v2.55h.081c.775-1.469 2.668-3.019 5.492-3.019 5.875 0 6.955 3.869 6.955 8.894V28h-.005z"/></symbol><symbol id="icon-twitter" viewBox="0 0 32 32"><path d="M30 7.568a11.204 11.204 0 0 1-1.3 1.606 12.04 12.04 0 0 1-1.572 1.36c.018.251.027.502.028.754 0 1.148-.122 2.282-.368 3.404a16.933 16.933 0 0 1-1.068 3.254 16.886 16.886 0 0 1-2.528 4.08 15.54 15.54 0 0 1-3.44 3.042 15.693 15.693 0 0 1-4.19 1.9 17.052 17.052 0 0 1-4.758.658 16.358 16.358 0 0 1-4.586-.65A15.847 15.847 0 0 1 2 25.04a11.53 11.53 0 0 0 8.504-2.38 5.673 5.673 0 0 1-4.546-2.38 5.768 5.768 0 0 1-.814-1.6c.182.028.362.052.54.07a5.596 5.596 0 0 0 2.044-.178 5.602 5.602 0 0 1-1.852-.724 5.877 5.877 0 0 1-1.456-1.266 5.674 5.674 0 0 1-1.3-3.644v-.066a5.57 5.57 0 0 0 2.612.724 5.89 5.89 0 0 1-1.872-2.08 5.925 5.925 0 0 1-.506-1.298 5.895 5.895 0 0 1 .014-2.906c.126-.486.322-.948.588-1.386.728.902 1.54 1.712 2.432 2.426a16.43 16.43 0 0 0 6.016 3.05c1.108.297 2.244.473 3.39.526-.055-.213-.094-.431-.116-.65s-.034-.441-.034-.662c0-.794.15-1.54.452-2.236a5.79 5.79 0 0 1 3.056-3.056 5.586 5.586 0 0 1 2.234-.45 5.693 5.693 0 0 1 4.198 1.818 11.405 11.405 0 0 0 3.636-1.396 5.629 5.629 0 0 1-2.516 3.172A11.405 11.405 0 0 0 30 7.57v-.002z"/></symbol></defs></svg>