<svg aria-hidden="true" style="position: absolute; width: 0; height: 0; overflow: hidden;" version="1.1" xmlns="http://www.w3.org/2000/svg" xmlns:xlink="http://www.w3.org/1999/xlink">
<defs>
<symbol id="icon-android" viewBox="0 0 28 32">
<path   d="M5.26 24.204c0 0.836 0.708 1.518 1.578 1.518h1.804v4.3c0 1.089 0.908 1.979 2.023 1.979 1.119 0 2.023-0.886 2.023-1.979v-4.303h3.149v4.3c0 1.089 0.908 1.979 2.023 1.979 1.119 0 2.023-0.886 2.023-1.979v-4.3h1.804c0.871 0 1.578-0.682 1.578-1.518v-14.114h-18.005v14.117zM18.49 2.773l1.663-2.321c0.096-0.136 0.074-0.318-0.056-0.407-0.13-0.086-0.315-0.043-0.411 0.093l-1.726 2.414c-1.137-0.432-2.404-0.671-3.734-0.671s-2.597 0.239-3.734 0.671l-1.726-2.411c-0.096-0.136-0.282-0.182-0.411-0.093-0.13 0.086-0.152 0.264-0.056 0.407l1.663 2.321c-2.645 1.186-4.497 3.432-4.735 6.057h18.005c-0.245-2.628-2.101-4.875-4.742-6.060zM10.425 6.433c-0.197 0-0.39-0.056-0.554-0.162s-0.292-0.256-0.367-0.431c-0.075-0.176-0.095-0.369-0.057-0.555s0.133-0.358 0.273-0.492 0.317-0.226 0.51-0.263c0.193-0.037 0.394-0.018 0.576 0.055s0.338 0.196 0.447 0.354c0.11 0.158 0.168 0.344 0.168 0.534-0.001 0.255-0.106 0.499-0.293 0.679s-0.44 0.281-0.704 0.282zM18.145 6.433c-0.197 0-0.39-0.056-0.554-0.162s-0.292-0.256-0.367-0.431c-0.075-0.176-0.095-0.369-0.057-0.555s0.133-0.358 0.273-0.492 0.317-0.226 0.51-0.263c0.193-0.037 0.394-0.018 0.576 0.055s0.338 0.196 0.447 0.354 0.168 0.344 0.168 0.534c-0.001 0.255-0.106 0.499-0.293 0.679s-0.44 0.281-0.704 0.282zM26.421 10.030c-1.119 0-2.023 0.886-2.023 1.979v7.728c0 1.089 0.908 1.979 2.023 1.979 1.119 0 2.023-0.886 2.023-1.979v-7.732c0.004-1.093-0.9-1.975-2.023-1.975zM2.022 10.030c-1.119 0-2.023 0.886-2.023 1.979v7.728c0 1.089 0.908 1.979 2.023 1.979 1.119 0 2.023-0.886 2.023-1.979v-7.732c0-1.093-0.908-1.975-2.023-1.975z"></path>
</symbol>
<symbol id="icon-ios" viewBox="0 0 27 32">
<path d="M20.372 7.314c-2.881 0-4.098 1.384-6.104 1.384-2.057 0-3.626-1.374-6.122-1.374-2.443 0-5.049 1.502-6.704 4.061-2.323 3.608-1.929 10.404 1.834 16.193 1.346 2.072 3.143 4.397 5.501 4.422h0.043c2.049 0 2.658-1.351 5.478-1.367h0.043c2.778 0 3.335 1.359 5.375 1.359h0.043c2.358-0.025 4.252-2.6 5.598-4.665 0.969-1.485 1.329-2.23 2.072-3.91-5.443-2.080-6.318-9.85-0.934-12.829-1.643-2.072-3.952-3.272-6.129-3.272l0.007-0.003z"></path>
<path   d="M20.055 0c-1.658 0.111-3.593 1.148-4.726 2.502-1.028 1.227-1.874 3.047-1.542 4.813h0.133c1.766 0 3.573-1.045 4.629-2.383 1.017-1.274 1.788-3.079 1.506-4.931z"></path>
</symbol>
</defs>
</svg>
