<svg aria-hidden="true" style="position: absolute; width: 0; height: 0; overflow: hidden;" version="1.1" xmlns="http://www.w3.org/2000/svg" xmlns:xlink="http://www.w3.org/1999/xlink">
<defs>
<symbol id="icon-play" viewBox="0 0 24 32">
<path d="M0 0l24 16-24 16z"></path>
</symbol>
<symbol id="icon-play-alt" viewBox="0 0 32 32">
<path d="M16 0c-8.836 0-16 7.164-16 16s7.164 16 16 16 16-7.164 16-16-7.164-16-16-16zM10 24v-16l16.008 8-16.008 8z"></path>
</symbol>
<symbol id="icon-sprite" viewBox="0 0 32 32">
<path d="M16 0c-8.836 0-16 7.164-16 16s7.164 16 16 16 16-7.164 16-16-7.164-16-16-16zM10 24v-16l16.008 8-16.008 8z"></path>
</symbol>
<symbol id="icon-sprite1" viewBox="0 0 32 32">
<path d="M16 0c-8.836 0-16 7.164-16 16s7.164 16 16 16 16-7.164 16-16-7.164-16-16-16zM10 24v-16l16.008 8-16.008 8z"></path>
</symbol>
</defs>
</svg>
