<svg width="320" height="512" viewBox="0 0 320 512" fill="none" xmlns="http://www.w3.org/2000/svg">
<g filter="url(#filter0_f_301_57)">
<path d="M186.157 357.002C195.151 351.148 204.784 344.481 216.492 344.912C226.068 345.265 233.317 353.34 240.332 360.371C250.408 370.47 259.09 381.631 263.884 395.262C265.014 398.473 265.476 403.766 265.771 407.126C266.347 413.686 267.859 419.318 270.385 425.584C272.849 431.697 264.662 435.776 263.949 441.577" stroke="url(#paint0_linear_301_57)" stroke-opacity="0.2" stroke-width="205" stroke-linecap="round"/>
</g>
<g filter="url(#filter1_f_301_57)">
<path d="M-18.6543 464.312C-11.3848 478.966 -4.43809 495.444 22.0144 498.617C43.6508 501.212 76.5053 487.755 106.643 476.282C149.935 459.8 192.426 440.743 231.645 415.472C240.885 409.519 253.062 399.223 260.794 392.691C275.892 379.933 291.074 369.33 309.808 357.823C328.082 346.598 318.826 335.728 329.513 324.026" stroke="url(#paint1_linear_301_57)" stroke-opacity="0.2" stroke-width="205" stroke-linecap="round"/>
</g>
<g filter="url(#filter2_f_301_57)">
<path d="M79.9579 476.55C84.8159 469.454 90.4308 461.926 88.3965 451.233C86.7325 442.487 77.3677 434.454 69.1193 426.823C57.2709 415.861 44.5094 405.97 29.7116 399.158C26.2254 397.554 20.6681 396.177 17.1413 395.302C10.254 393.594 4.20306 391.204 -2.64362 387.78C-9.32249 384.44 -12.4469 391.126 -18.3722 390.723" stroke="url(#paint2_linear_301_57)" stroke-opacity="0.2" stroke-width="205" stroke-linecap="round"/>
</g>
<defs>
<filter id="filter0_f_301_57" x="-137.355" y="21.3977" width="731.701" height="743.69" filterUnits="userSpaceOnUse" color-interpolation-filters="sRGB">
<feFlood flood-opacity="0" result="BackgroundImageFix"/>
<feBlend mode="normal" in="SourceGraphic" in2="BackgroundImageFix" result="shape"/>
<feGaussianBlur stdDeviation="110.5" result="effect1_foregroundBlur_301_57"/>
</filter>
<filter id="filter1_f_301_57" x="-342.177" y="0.524902" width="995.19" height="821.901" filterUnits="userSpaceOnUse" color-interpolation-filters="sRGB">
<feFlood flood-opacity="0" result="BackgroundImageFix"/>
<feBlend mode="normal" in="SourceGraphic" in2="BackgroundImageFix" result="shape"/>
<feGaussianBlur stdDeviation="110.5" result="effect1_foregroundBlur_301_57"/>
</filter>
<filter id="filter2_f_301_57" x="-341.876" y="63.3403" width="754.208" height="736.719" filterUnits="userSpaceOnUse" color-interpolation-filters="sRGB">
<feFlood flood-opacity="0" result="BackgroundImageFix"/>
<feBlend mode="normal" in="SourceGraphic" in2="BackgroundImageFix" result="shape"/>
<feGaussianBlur stdDeviation="110.5" result="effect1_foregroundBlur_301_57"/>
</filter>
<linearGradient id="paint0_linear_301_57" x1="209.744" y1="338.953" x2="266.177" y2="425.875" gradientUnits="userSpaceOnUse">
<stop stop-color="#00C5EB"/>
<stop offset="1" stop-color="#B544FE"/>
</linearGradient>
<linearGradient id="paint1_linear_301_57" x1="-5.28143" y1="508.067" x2="300.935" y2="355.188" gradientUnits="userSpaceOnUse">
<stop stop-color="#00C5EB"/>
<stop offset="1" stop-color="#B544FE"/>
</linearGradient>
<linearGradient id="paint2_linear_301_57" x1="95.4968" y1="458.429" x2="-2.43275" y2="391.627" gradientUnits="userSpaceOnUse">
<stop stop-color="#00C5EB"/>
<stop offset="1" stop-color="#B544FE"/>
</linearGradient>
</defs>
</svg>
