<svg width="1280" height="1576" viewBox="0 0 1280 1576" fill="none" xmlns="http://www.w3.org/2000/svg">
<g filter="url(#filter0_f_1921_4)">
<path d="M-328.435 671.033C-256.585 629.49 -167.429 606.254 -106.195 602.454C-63.8463 599.826 -23.1181 605.016 -2.47236 622.597C17.2672 639.407 26.1472 664.112 38.4924 685.463C47.926 701.778 53.9599 718.703 57.717 738.04C61.3539 756.758 70.9914 772.278 75.4646 790.584C95.7975 873.793 127.27 987.856 293.082 959.809C338.825 952.072 381.877 953.398 419.987 955.341C471.693 957.977 527.383 957.805 576.835 962.743C611.06 966.16 643.685 973.467 668.936 985.056C690.529 994.966 701.885 1008.43 712.112 1026.11C723.748 1046.24 735.384 1066.36 747.021 1086.49C755.406 1100.99 755.565 1114.66 782.723 1113.78C840.797 1111.9 908.571 1119.08 898.956 1167.75" stroke="url(#paint0_linear_1921_4)" stroke-opacity="0.25" stroke-width="205" stroke-linecap="round"/>
</g>
<g filter="url(#filter1_f_1921_4)">
<path d="M964.007 527C964.007 480 963.114 428.718 981.217 386.775C996.025 352.469 1024.79 345.155 1050.86 336.206C1088.31 323.351 1126.11 318.147 1163.77 333.114C1172.65 336.641 1185.22 347.592 1193.21 354.535C1208.8 368.092 1223.68 375.999 1241.46 381.696C1258.81 387.254 1256 427.052 1268 443.528" stroke="url(#paint1_linear_1921_4)" stroke-opacity="0.2" stroke-width="205" stroke-linecap="round"/>
</g>
<defs>
<filter id="filter0_f_1921_4" x="-649.953" y="280.312" width="1871.31" height="1208.96" filterUnits="userSpaceOnUse" color-interpolation-filters="sRGB">
<feFlood flood-opacity="0" result="BackgroundImageFix"/>
<feBlend mode="normal" in="SourceGraphic" in2="BackgroundImageFix" result="shape"/>
<feGaussianBlur stdDeviation="109.5" result="effect1_foregroundBlur_1921_4"/>
</filter>
<filter id="filter1_f_1921_4" x="640.438" y="0.48999" width="951.07" height="850.01" filterUnits="userSpaceOnUse" color-interpolation-filters="sRGB">
<feFlood flood-opacity="0" result="BackgroundImageFix"/>
<feBlend mode="normal" in="SourceGraphic" in2="BackgroundImageFix" result="shape"/>
<feGaussianBlur stdDeviation="110.5" result="effect1_foregroundBlur_1921_4"/>
</filter>
<linearGradient id="paint0_linear_1921_4" x1="-421.779" y1="496.026" x2="335.631" y2="1406.81" gradientUnits="userSpaceOnUse">
<stop stop-color="#00C5EB"/>
<stop offset="0.447917" stop-color="#3D99F1" stop-opacity="0.62"/>
<stop offset="1" stop-color="#B544FE"/>
</linearGradient>
<linearGradient id="paint1_linear_1921_4" x1="957.944" y1="397.305" x2="1235.96" y2="397.505" gradientUnits="userSpaceOnUse">
<stop stop-color="#00C5EB"/>
<stop offset="1" stop-color="#B544FE"/>
</linearGradient>
</defs>
</svg>
