<svg width="20" height="20" viewBox="0 0 20 20" fill="none" xmlns="http://www.w3.org/2000/svg">
<path d="M15 2.13491C15 2.01216 14.9521 1.89445 14.8669 1.80765C14.7816 1.72086 14.666 1.6721 14.5455 1.6721H12.2727C11.1283 1.61405 10.0078 2.01957 9.15611 2.80004C8.30441 3.58052 7.79071 4.6725 7.72727 5.8374V8.33658H5.45455C5.33399 8.33658 5.21838 8.38534 5.13313 8.47213C5.04789 8.55892 5 8.67664 5 8.79939V11.206C5 11.3287 5.04789 11.4465 5.13313 11.5333C5.21838 11.6201 5.33399 11.6688 5.45455 11.6688H7.72727V17.8705C7.72727 17.9932 7.77516 18.1109 7.86041 18.1977C7.94565 18.2845 8.06127 18.3333 8.18182 18.3333H10.9091C11.0296 18.3333 11.1453 18.2845 11.2305 18.1977C11.3157 18.1109 11.3636 17.9932 11.3636 17.8705V11.6688H13.7455C13.8465 11.6703 13.9452 11.6374 14.0259 11.5754C14.1066 11.5134 14.1646 11.4257 14.1909 11.3263L14.8455 8.91972C14.8635 8.85133 14.866 8.77964 14.8526 8.71015C14.8392 8.64066 14.8103 8.57523 14.7681 8.5189C14.726 8.46256 14.6717 8.41683 14.6094 8.38523C14.5472 8.35362 14.4786 8.33697 14.4091 8.33658H11.3636V5.8374C11.3862 5.60828 11.4919 5.39598 11.66 5.24194C11.8281 5.0879 12.0466 5.00318 12.2727 5.00434H14.5455C14.666 5.00434 14.7816 4.95558 14.8669 4.86878C14.9521 4.78199 15 4.66427 15 4.54153V2.13491Z" fill="white"/>
</svg>
