<svg aria-hidden="true" style="position: absolute; width: 0; height: 0; overflow: hidden;" version="1.1" xmlns="http://www.w3.org/2000/svg" xmlns:xlink="http://www.w3.org/1999/xlink">
<defs>
<symbol id="icon-facebook" viewBox="0 0 32 32">
<path d="M24 3.416c0-0.196-0.077-0.385-0.213-0.524s-0.321-0.217-0.514-0.217h-3.636c-1.831-0.093-3.624 0.556-4.987 1.805s-2.185 2.996-2.286 4.86v3.999h-3.636c-0.193 0-0.378 0.078-0.514 0.217s-0.213 0.327-0.213 0.524v3.851c0 0.196 0.077 0.385 0.213 0.524s0.321 0.217 0.514 0.217h3.636v9.923c0 0.196 0.077 0.385 0.213 0.524s0.321 0.217 0.514 0.217h4.364c0.193 0 0.378-0.078 0.514-0.217s0.213-0.327 0.213-0.524v-9.923h3.811c0.162 0.002 0.32-0.050 0.449-0.149s0.222-0.24 0.264-0.399l1.047-3.851c0.029-0.109 0.033-0.224 0.011-0.335s-0.068-0.216-0.135-0.306c-0.067-0.090-0.154-0.163-0.254-0.214s-0.209-0.077-0.32-0.078h-4.873v-3.999c0.036-0.367 0.205-0.706 0.474-0.953s0.619-0.382 0.98-0.38h3.636c0.193 0 0.378-0.078 0.514-0.217s0.213-0.327 0.213-0.524v-3.851z"></path>
</symbol>
<symbol id="icon-linkedin" viewBox="0 0 32 32">
<path d="M8.268 28h-5.805v-18.694h5.805v18.694zM5.362 6.756c-1.856 0-3.362-1.538-3.362-3.394 0-0.892 0.354-1.747 0.985-2.377s1.486-0.985 2.377-0.985c0.892 0 1.747 0.354 2.377 0.985s0.985 1.486 0.985 2.377c0 1.856-1.506 3.394-3.362 3.394zM29.994 28h-5.792v-9.1c0-2.169-0.044-4.95-3.018-4.95-3.018 0-3.481 2.356-3.481 4.794v9.256h-5.799v-18.694h5.567v2.55h0.081c0.775-1.469 2.668-3.019 5.492-3.019 5.875 0 6.955 3.869 6.955 8.894v10.269h-0.005z"></path>
</symbol>
<symbol id="icon-twitter" viewBox="0 0 32 32">
<path d="M30 7.568c-0.383 0.574-0.818 1.112-1.3 1.606-0.484 0.498-1.010 0.953-1.572 1.36 0.018 0.251 0.027 0.502 0.028 0.754 0 1.148-0.122 2.282-0.368 3.404-0.245 1.118-0.603 2.208-1.068 3.254-0.644 1.473-1.495 2.847-2.528 4.080-0.99 1.179-2.149 2.204-3.44 3.042-1.296 0.836-2.708 1.476-4.19 1.9-1.547 0.443-3.149 0.664-4.758 0.658-1.552 0.002-3.096-0.217-4.586-0.65-1.493-0.435-2.915-1.087-4.218-1.936 1.504 0.182 3.030 0.065 4.489-0.343s2.824-1.1 4.015-2.037c-0.891-0.012-1.767-0.234-2.557-0.648s-1.471-1.007-1.989-1.732c-0.353-0.488-0.628-1.027-0.814-1.6 0.182 0.028 0.362 0.052 0.54 0.070 0.686 0.067 1.379 0.007 2.044-0.178-0.655-0.129-1.283-0.374-1.852-0.724-0.552-0.339-1.044-0.767-1.456-1.266-0.847-1.025-1.307-2.315-1.3-3.644v-0.066c0.804 0.454 1.674 0.696 2.612 0.724-0.782-0.533-1.424-1.246-1.872-2.080-0.219-0.411-0.389-0.847-0.506-1.298-0.238-0.955-0.233-1.954 0.014-2.906 0.126-0.486 0.322-0.948 0.588-1.386 0.728 0.902 1.54 1.712 2.432 2.426 1.773 1.422 3.821 2.46 6.016 3.050 1.108 0.297 2.244 0.473 3.39 0.526-0.055-0.213-0.094-0.431-0.116-0.65s-0.034-0.441-0.034-0.662c0-0.794 0.15-1.54 0.452-2.236 0.586-1.375 1.681-2.47 3.056-3.056 0.706-0.302 1.466-0.455 2.234-0.45 0.787-0.004 1.567 0.156 2.29 0.469s1.372 0.772 1.908 1.349c1.283-0.253 2.513-0.726 3.636-1.396-0.416 1.333-1.313 2.463-2.516 3.172 1.137-0.132 2.249-0.435 3.296-0.898v-0.002z"></path>
</symbol>
</defs>
</svg>
