<svg width="20" height="20" viewBox="0 0 20 20" fill="none" xmlns="http://www.w3.org/2000/svg">
<path d="M18.75 4.72997C18.5105 5.08875 18.2385 5.42475 17.9375 5.73372C17.635 6.04468 17.3062 6.32906 16.955 6.58372C16.9663 6.74056 16.9721 6.89774 16.9725 7.05498C16.9725 7.77247 16.8962 8.48123 16.7425 9.18248C16.5893 9.88121 16.3657 10.5626 16.075 11.2162C15.6724 12.1371 15.1404 12.9958 14.495 13.7662C13.8765 14.503 13.1519 15.1437 12.345 15.6675C11.5353 16.19 10.6528 16.5901 9.72625 16.855C8.75938 17.1317 7.75819 17.2702 6.7525 17.2662C5.78265 17.2675 4.81756 17.1307 3.88625 16.86C2.95286 16.5882 2.06458 16.1805 1.25 15.65C2.19022 15.7636 3.14362 15.6908 4.05563 15.4355C4.96765 15.1803 5.82038 14.7477 6.565 14.1625C6.00794 14.1547 5.46053 14.016 4.96697 13.7576C4.4734 13.4992 4.04753 13.1283 3.72375 12.675C3.50291 12.3703 3.33124 12.0329 3.215 11.675C3.32875 11.6925 3.44125 11.7075 3.5525 11.7187C3.98155 11.7607 4.41467 11.723 4.83 11.6075C4.42032 11.5267 4.02835 11.3735 3.6725 11.155C3.3277 10.9431 3.02023 10.6758 2.7625 10.3637C2.2334 9.72309 1.94586 8.9171 1.95 8.08623V8.04497C2.4525 8.32872 2.99625 8.47997 3.5825 8.49747C3.09366 8.1645 2.69232 7.71856 2.4125 7.19747C2.27547 6.94047 2.16931 6.66816 2.09625 6.38622C1.94743 5.78958 1.95043 5.16516 2.105 4.56997C2.18375 4.26622 2.30625 3.97747 2.4725 3.70372C2.9275 4.26748 3.435 4.77373 3.9925 5.21997C5.10051 6.10859 6.38082 6.75768 7.7525 7.12622C8.44486 7.31176 9.15522 7.42198 9.87125 7.45498C9.83671 7.32162 9.81247 7.1858 9.79875 7.04872C9.78467 6.91126 9.77757 6.77316 9.7775 6.63497C9.7775 6.13872 9.87125 5.67248 10.06 5.23747C10.426 4.37793 11.1105 3.69343 11.97 3.32747C12.4111 3.13867 12.8864 3.04293 13.3663 3.04622C13.8584 3.04383 14.3457 3.14358 14.7973 3.33916C15.2489 3.53474 15.655 3.8219 15.99 4.18247C16.7919 4.02415 17.5607 3.72901 18.2625 3.30997C18.0023 4.14294 17.4419 4.8495 16.69 5.29248C17.4009 5.20985 18.0954 5.02064 18.75 4.73123V4.72997Z" fill="white"/>
</svg>
