<svg xmlns="http://www.w3.org/2000/svg" width="1280" height="931" fill="none"><g filter="url(#a)"><path stroke="url(#b)" stroke-linecap="round" stroke-opacity=".25" stroke-width="205" d="M1064 414.188c0-20.881-.54-43.665 10.5-62.299 9.03-15.241 26.58-18.49 42.48-22.466 22.85-5.711 45.9-8.023 68.87-1.374 5.42 1.567 13.09 6.432 17.96 9.517 9.51 6.023 18.58 9.536 29.43 12.067 10.58 2.469 8.87 20.15 16.19 27.47"/></g><g filter="url(#c)"><path stroke="url(#d)" stroke-linecap="round" stroke-opacity=".25" stroke-width="205" d="M428.436 517.026c-.003 20.881.539 43.665-10.506 62.297-9.034 15.24-26.58 18.487-42.484 22.46-22.845 5.708-45.901 8.017-68.872 1.364-5.411-1.567-13.082-6.434-17.952-9.519-9.51-6.025-18.582-9.538-29.43-12.071-10.583-2.471-8.865-20.152-16.184-27.473"/></g><defs><linearGradient id="b" x1="1060.31" x2="1229.88" y1="356.568" y2="356.735" gradientUnits="userSpaceOnUse"><stop stop-color="#00C5EB"/><stop offset="1" stop-color="#B544FE"/></linearGradient><linearGradient id="d" x1="432.126" x2="262.549" y1="574.647" y2="574.455" gradientUnits="userSpaceOnUse"><stop stop-color="#00C5EB"/><stop offset="1" stop-color="#B544FE"/></linearGradient><filter id="a" width="832.558" height="737.188" x="740.37" y=".499" color-interpolation-filters="sRGB" filterUnits="userSpaceOnUse"><feFlood flood-opacity="0" result="BackgroundImageFix"/><feBlend in="SourceGraphic" in2="BackgroundImageFix" result="shape"/><feGaussianBlur result="effect1_foregroundBlur_2405_2" stdDeviation="110.5"/></filter><filter id="c" width="832.561" height="737.175" x="-80.492" y="193.526" color-interpolation-filters="sRGB" filterUnits="userSpaceOnUse"><feFlood flood-opacity="0" result="BackgroundImageFix"/><feBlend in="SourceGraphic" in2="BackgroundImageFix" result="shape"/><feGaussianBlur result="effect1_foregroundBlur_2405_2" stdDeviation="110.5"/></filter></defs></svg>