<svg xmlns="http://www.w3.org/2000/svg" width="320" height="1950" fill="none"><g filter="url(#a)"><path stroke="url(#b)" stroke-linecap="round" stroke-opacity=".25" stroke-width="205" d="M105.492 439.939c-5.67-20.051-12.379-41.781-6.837-62.672 4.533-17.088 20.495-24.971 34.683-33.106 20.381-11.685 41.888-20.164 65.748-20.015 5.621.035 14.307 2.625 19.82 4.265 10.766 3.202 20.431 4.112 31.533 3.598 10.831-.501 13.985 16.942 23 21.985"/></g><g filter="url(#c)"><path stroke="url(#d)" stroke-linecap="round" stroke-opacity=".25" stroke-width="205" d="M17.671 1625.66c-17.595-11.16-37.772-21.8-33.616-63.06 3.399-33.75 32.213-85.21 57.46-132.41 36.269-67.8 75.782-134.38 122.694-195.93 11.052-14.51 28.948-33.65 40.305-45.8 22.178-23.74 41.454-47.57 63.095-76.97 21.112-28.67 32.926-14.36 52.257-31.19"/></g><defs><linearGradient id="b" x1="86.296" x2="249.145" y1="385.612" y2="339.74" gradientUnits="userSpaceOnUse"><stop stop-color="#00C5EB"/><stop offset="1" stop-color="#B544FE"/></linearGradient><linearGradient id="d" x1="-37.532" x2="269.01" y1="1605.34" y2="1125.73" gradientUnits="userSpaceOnUse"><stop stop-color="#00C5EB"/><stop offset="1" stop-color="#B544FE"/></linearGradient><filter id="a" width="823.729" height="762.821" x="-226.771" y=".644" color-interpolation-filters="sRGB" filterUnits="userSpaceOnUse"><feFlood flood-opacity="0" result="BackgroundImageFix"/><feBlend in="SourceGraphic" in2="BackgroundImageFix" result="shape"/><feGaussianBlur result="effect1_foregroundBlur_2405_4" stdDeviation="110.5"/></filter><filter id="c" width="983.35" height="1192.38" x="-339.982" y="756.797" color-interpolation-filters="sRGB" filterUnits="userSpaceOnUse"><feFlood flood-opacity="0" result="BackgroundImageFix"/><feBlend in="SourceGraphic" in2="BackgroundImageFix" result="shape"/><feGaussianBlur result="effect1_foregroundBlur_2405_4" stdDeviation="110.5"/></filter></defs></svg>