<svg xmlns="http://www.w3.org/2000/svg" width="596" height="1204" fill="none"><g filter="url(#a)"><path stroke="url(#b)" stroke-linecap="round" stroke-opacity=".25" stroke-width="205" d="M508.996 790c0 20.837.543 43.573-10.474 62.169-9.011 15.209-26.516 18.452-42.382 22.419-22.791 5.7-45.794 8.007-68.713 1.371-5.399-1.563-13.053-6.419-17.912-9.497-9.489-6.01-18.541-9.516-29.365-12.042-10.558-2.464-8.847-20.108-16.15-27.413"/></g><g filter="url(#c)"><path stroke="url(#d)" stroke-linecap="round" stroke-opacity=".25" stroke-width="205" d="M387.004 414c0-20.837-.543-43.573 10.474-62.169 9.011-15.209 26.516-18.452 42.382-22.419 22.791-5.7 45.794-8.007 68.713-1.371 5.399 1.563 13.053 6.419 17.912 9.497 9.489 6.01 18.541 9.516 29.365 12.042 10.558 2.464 8.847 20.108 16.15 27.413"/></g><defs><linearGradient id="b" x1="512.686" x2="343.5" y1="847.5" y2="847.333" gradientUnits="userSpaceOnUse"><stop stop-color="#00C5EB"/><stop offset="1" stop-color="#B544FE"/></linearGradient><linearGradient id="d" x1="383.314" x2="552.5" y1="356.5" y2="356.667" gradientUnits="userSpaceOnUse"><stop stop-color="#00C5EB"/><stop offset="1" stop-color="#B544FE"/></linearGradient><filter id="a" width="832.13" height="737" x=".5" y="466.5" color-interpolation-filters="sRGB" filterUnits="userSpaceOnUse"><feFlood flood-opacity="0" result="BackgroundImageFix"/><feBlend in="SourceGraphic" in2="BackgroundImageFix" result="shape"/><feGaussianBlur result="effect1_foregroundBlur_2405_3" stdDeviation="110.5"/></filter><filter id="c" width="832.13" height="737.001" x="63.37" y=".499" color-interpolation-filters="sRGB" filterUnits="userSpaceOnUse"><feFlood flood-opacity="0" result="BackgroundImageFix"/><feBlend in="SourceGraphic" in2="BackgroundImageFix" result="shape"/><feGaussianBlur result="effect1_foregroundBlur_2405_3" stdDeviation="110.5"/></filter></defs></svg>